<?xml version="1.0" standalone="no"?><!DOCTYPE svg PUBLIC "-//W3C//DTD SVG 1.1//EN" "http://www.w3.org/Graphics/SVG/1.1/DTD/svg11.dtd"><svg class="icon" width="35px" height="35.00px" viewBox="0 0 1024 1024" version="1.1" xmlns="http://www.w3.org/2000/svg"><path d="M955.91333333 306.32a56.4 56.4 0 0 1-21.3 4.2c-114.12 0-224.4 25.8-318.72 74.64a566.4 566.4 0 0 0-130.2 92.22 515.7 515.7 0 0 0-98.22 127.98 30 30 0 0 1-52.74-28.62A575.7 575.7 0 0 1 444.29333333 434a626.4 626.4 0 0 1 144-102c100.44-52.02 216.72-80.04 337.02-81.42L765.53333333 90.92a30 30 0 0 1 42.42-42.48l166.26 166.2 4.08 5.04-2.7-3.6a57.36 57.36 0 0 1 15.12 38.34 56.28 56.28 0 0 1-15.6 38.64l-0.18 0.12-0.72 0.9-1.2 1.08a56.64 56.64 0 0 1-17.16 11.16z m12.18-95.94c0.36-0.48 3.72 1.8 6.6 4.68a56.4 56.4 0 0 1 0.96 1.02 15.9 15.9 0 0 0-7.56-5.7z m0 0c-3.06-1.2-7.56-2.4-14.88-4.32a30 30 0 0 1 11.52 2.28l3.36 2.04z" fill="#EDC22C" /><path d="M456.95333333 62a30 30 0 0 1 0 60H223.37333333a102.6 102.6 0 0 0-102.66 102.6v574.8c0 56.64 45.96 102.6 102.66 102.6h574.74a102.6 102.6 0 0 0 102.6-102.6V556.16a30 30 0 1 1 60 0v243.12a162.6 162.6 0 0 1-162.6 162.66H223.37333333a162.66 162.66 0 0 1-162.66-162.6V224.6A162.6 162.6 0 0 1 223.37333333 62h233.58z" fill="#EDC22C" /></svg>